HIERARCHY
ROOT SpineBase
{
  OFFSET 0.000000 0.000000 0.000000
  CHANNELS 6 Xposition Yposition Zposition Zrotation Xrotation Yrotation
  JOINT SpineMid
  {
    OFFSET 0.000000 31.016472 0.000000
    CHANNELS 3 Zrotation Xrotation Yrotation
    JOINT SpineShoulder
    {
      OFFSET -0.265314 22.976898 -0.849882
      CHANNELS 3 Zrotation Xrotation Yrotation
      JOINT Neck
      {
        OFFSET -0.039476 7.632966 -0.655357
        CHANNELS 3 Zrotation Xrotation Yrotation
        JOINT Head
        {
          OFFSET 2.112311 14.349128 0.610033
          CHANNELS 3 Zrotation Xrotation Yrotation
          End Site
          {
            OFFSET 0 0 0
          }
        }
      }
      JOINT ShoulderLeft
      {
        OFFSET -12.166522 -2.944408 -9.196118
        CHANNELS 3 Zrotation Xrotation Yrotation
        JOINT ElbowLeft
        {
          OFFSET -5.089162 -28.911589 -2.352948
          CHANNELS 3 Zrotation Xrotation Yrotation
          JOINT WristLeft
          {
            OFFSET -2.317803 -23.538086 -6.940575
            CHANNELS 3 Zrotation Xrotation Yrotation
            JOINT HandLeft
            {
              OFFSET -2.302277 -6.715653 -3.201381
              CHANNELS 3 Zrotation Xrotation Yrotation
              JOINT HandTipLeft
              {
                OFFSET 0.656674 -7.020425 -4.677756
                CHANNELS 3 Zrotation Xrotation Yrotation
                End Site
                {
                  OFFSET 0 0 0
                }
              }
              JOINT ThumbLeft
              {
                OFFSET -1.794253 0.491836 -4.304442
                CHANNELS 3 Zrotation Xrotation Yrotation
                End Site
                {
                  OFFSET 0 0 0
                }
              }
            }
          }
        }
      }
      JOINT ShoulderRight
      {
        OFFSET 14.100243 -3.411862 6.645754
        CHANNELS 3 Zrotation Xrotation Yrotation
        JOINT ElbowRight
        {
          OFFSET 5.572552 -30.224445 7.301466
          CHANNELS 3 Zrotation Xrotation Yrotation
          JOINT WristRight
          {
            OFFSET 5.187538 -23.673563 1.716905
            CHANNELS 3 Zrotation Xrotation Yrotation
            JOINT HandRight
            {
              OFFSET 2.178952 -6.302544 -0.208449
              CHANNELS 3 Zrotation Xrotation Yrotation
              JOINT HandTipRight
              {
                OFFSET -0.369661 -3.032116 0.975981
                CHANNELS 3 Zrotation Xrotation Yrotation
                End Site
                {
                  OFFSET 0 0 0
                }
              }
              JOINT ThumbRight
              {
                OFFSET -2.460417 -1.601056 0.791870
                CHANNELS 3 Zrotation Xrotation Yrotation
                End Site
                {
                  OFFSET 0 0 0
                }
              }
            }
          }
        }
      }
    }
  }
  JOINT HipLeft
  {
    OFFSET -5.877179 1.660053 -5.941138
    CHANNELS 3 Zrotation Xrotation Yrotation
    JOINT KneeLeft
    {
      OFFSET -6.040033 -34.551896 -2.945896
      CHANNELS 3 Zrotation Xrotation Yrotation
      JOINT AnkleLeft
      {
        OFFSET -3.526655 -39.961316 11.811534
        CHANNELS 3 Zrotation Xrotation Yrotation
        JOINT FootLeft
        {
          OFFSET 3.819320 -6.355035 -5.778734
          CHANNELS 3 Zrotation Xrotation Yrotation
          End Site
          {
            OFFSET 0 0 0
          }
        }
      }
    }
  }
  JOINT HipRight
  {
    OFFSET 5.797446 0.642132 -0.924235
    CHANNELS 3 Zrotation Xrotation Yrotation
    JOINT KneeRight
    {
      OFFSET 1.673368 -35.224810 6.506161
      CHANNELS 3 Zrotation Xrotation Yrotation
      JOINT AnkleRight
      {
        OFFSET -7.266460 -34.342026 7.056760
        CHANNELS 3 Zrotation Xrotation Yrotation
        JOINT FootRight
        {
          OFFSET 11.344302 7.495176 0.869117
          CHANNELS 3 Zrotation Xrotation Yrotation
          End Site
          {
            OFFSET 0 0 0
          }
        }
      }
    }
  }
}
MOTION
Frames: 14
Frame Time: 0.033333
1.574789 81.458627 319.296451 -0.000000 0.000000 -23.254510 -0.000000 0.000000 23.254510 -0.000000 0.000000 0.000000 -0.000000 0.000000 0.000000 0.000000 0.000000 0.000000 -0.000000 0.000000 0.000000 -0.000000 0.000000 0.000000 -0.000000 0.000000 0.000000 -0.000000 0.000000 0.000000 0.000000 0.000000 0.000000 0.000000 0.000000 0.000000 -0.000000 0.000000 0.000000 -0.000000 0.000000 0.000000 -0.000000 0.000000 0.000000 -0.000000 0.000000 0.000000 0.000000 0.000000 0.000000 0.000000 0.000000 0.000000 -0.000000 0.000000 23.254510 -0.000000 0.000000 0.000000 -0.000000 0.000000 0.000000 0.000000 0.000000 0.000000 -0.000000 0.000000 23.254510 -0.000000 0.000000 0.000000 -0.000000 0.000000 0.000000 0.000000 0.000000 0.000000
1.553522 81.498905 319.301953 -0.034754 -0.022604 -23.186492 0.023047 0.034462 23.186479 -0.000000 0.000000 0.000000 -0.000000 0.000000 0.000000 0.000000 0.000000 0.000000 -0.000000 0.000000 0.000000 -0.000000 0.000000 0.000000 -0.000000 0.000000 0.000000 -0.000000 0.000000 0.000000 0.000000 0.000000 0.000000 0.000000 0.000000 0.000000 -0.000000 0.000000 0.000000 1.037339 2.548796 0.610529 -1.229847 -0.749534 -0.038394 2.095260 5.739672 -1.022597 0.000000 0.000000 0.000000 0.000000 0.000000 0.000000 1.038592 -0.229261 23.229817 -0.829244 0.642853 -0.036959 -4.447371 -5.405111 0.626746 0.000000 0.000000 0.000000 0.023047 0.034462 23.186479 -0.000000 0.000000 0.000000 -0.000000 0.000000 0.000000 0.000000 0.000000 0.000000
1.534828 81.524033 319.308830 -0.067771 -0.049668 -23.093075 0.042859 0.072269 23.093019 -0.000000 0.000000 0.000000 -0.000000 0.000000 0.000000 0.000000 0.000000 0.000000 -0.000000 0.000000 0.000000 -0.000000 0.000000 0.000000 1.005374 0.444129 -0.636165 -1.000412 -0.455196 0.628294 0.000000 0.000000 0.000000 0.000000 0.000000 0.000000 -0.097599 1.246005 0.207800 1.985146 3.456827 0.925777 -2.529618 -1.540357 -0.179179 4.253107 9.994529 -1.839599 0.000000 0.000000 0.000000 0.000000 0.000000 0.000000 1.770288 -0.350059 23.162409 -2.456136 1.473081 -0.370437 -6.863284 -9.933225 1.265743 0.000000 0.000000 0.000000 0.042859 0.072269 23.093019 -0.000000 0.000000 0.000000 -0.000000 0.000000 0.000000 0.000000 0.000000 0.000000
1.518706 81.534009 319.317083 -0.099022 -0.081180 -22.974155 0.059482 0.113391 22.974026 -0.000000 0.000000 0.000000 -0.000000 0.000000 0.000000 0.000000 0.000000 0.000000 -0.000000 0.000000 0.000000 -0.000000 0.000000 0.000000 1.324049 0.341506 -0.754136 -1.997984 -1.236900 1.117045 0.000000 0.000000 0.000000 0.000000 0.000000 0.000000 -0.129872 1.661248 0.277849 2.676653 4.798029 1.257555 -3.921652 -2.453560 -0.448649 6.413940 13.075455 -2.381779 0.000000 0.000000 0.000000 0.000000 0.000000 0.000000 2.212973 -0.367720 23.050420 -3.100851 1.760744 -0.445068 -8.992716 -12.605661 1.622975 0.000000 0.000000 0.000000 0.059482 0.113391 22.974026 -0.639694 0.505732 -0.235569 0.641793 -0.503066 0.241210 0.000000 0.000000 0.000000
1.505158 81.528835 319.326711 -0.128480 -0.117125 -22.829693 0.072972 0.157799 22.829462 -0.000000 0.000000 0.000000 -0.000000 0.000000 0.000000 0.000000 0.000000 0.000000 -0.000000 0.000000 0.000000 -0.000000 0.000000 0.000000 1.506951 0.017018 -0.727689 -2.406608 -1.245061 1.218560 0.000000 0.000000 0.000000 0.000000 0.000000 0.000000 -0.149879 1.932001 0.323958 3.174662 5.882086 1.510717 -5.429298 -3.568047 -0.876285 8.570858 15.336249 -2.619391 0.000000 0.000000 0.000000 0.000000 0.000000 0.000000 2.378202 -0.284218 22.893296 -3.361974 1.754735 -0.457902 -10.186957 -13.626559 2.059546 0.000000 0.000000 0.000000 0.072972 0.157799 22.829462 -0.725593 0.625591 -0.277448 0.728657 -0.622020 0.285365 0.000000 0.000000 0.000000
1.494183 81.508509 319.337715 -0.156123 -0.157480 -22.659719 0.083402 0.205471 22.659355 -0.000000 0.000000 0.000000 -0.000000 0.000000 0.000000 0.000000 0.000000 0.000000 -0.000000 0.000000 0.000000 -0.000000 0.000000 0.000000 1.551086 -0.526257 -0.555708 -2.683322 -1.051452 1.186915 0.000000 0.000000 0.000000 0.000000 0.000000 0.000000 -0.156960 2.054669 0.345344 3.484495 6.714403 1.691028 -7.074219 -4.952430 -1.493668 10.746672 17.078907 -2.556882 0.000000 0.000000 0.000000 0.000000 0.000000 0.000000 2.271544 -0.098263 22.691601 -3.241130 1.456842 -0.410536 -10.453364 -12.998064 2.657188 0.000000 0.000000 0.000000 0.083402 0.205471 22.659355 -0.748878 0.721074 -0.301719 0.752723 -0.717059 0.311142 0.000000 0.000000 0.000000
1.491907 81.457437 319.352142 -0.173951 -0.201234 -22.426392 0.084027 0.252376 22.425902 -0.000000 0.000000 0.000000 -0.000000 0.000000 0.000000 0.000000 0.000000 0.000000 -0.000000 0.000000 0.000000 -0.000000 0.000000 0.000000 1.043148 -2.001954 0.209725 -2.674118 1.015075 0.873055 0.000000 0.000000 0.000000 0.000000 0.000000 0.000000 -0.160599 2.005474 0.335309 3.506137 7.579736 1.855294 -10.142213 -9.725115 -3.734112 14.534846 19.854045 -1.320034 0.000000 0.000000 0.000000 0.000000 0.000000 0.000000 1.663047 0.254577 22.399272 -2.413883 0.679893 -0.250747 -12.573134 -15.777049 1.635052 0.000000 0.000000 0.000000 0.084027 0.252376 22.425902 -0.675032 0.800088 -0.303348 0.679324 -0.796447 0.312783 0.000000 0.000000 0.000000
1.490828 81.412765 319.366745 -0.187918 -0.244875 -22.216278 0.081381 0.297748 22.215665 -0.000000 0.000000 0.000000 -0.000000 0.000000 0.000000 0.000000 0.000000 0.000000 -0.000000 0.000000 0.000000 -0.000000 0.000000 0.000000 2.197712 -3.868745 0.361439 -3.634196 2.773362 0.740148 0.000000 0.000000 0.000000 0.000000 0.000000 0.000000 -0.117110 1.697816 0.287581 3.347791 8.100893 1.922124 -11.721412 -10.898649 -4.478970 18.434062 18.204247 -0.270764 0.000000 0.000000 0.000000 0.000000 0.000000 0.000000 0.763358 0.771919 22.108405 -0.810278 -0.182592 0.099604 -13.385416 -15.997367 0.823886 0.000000 0.000000 0.000000 0.081381 0.297748 22.215665 -0.605993 0.845453 -0.299064 0.610464 -0.842231 0.308022 0.000000 0.000000 0.000000
1.484349 81.360709 319.375368 -0.211734 -0.293075 -21.981591 0.086643 0.351023 21.980784 -0.000000 0.000000 0.000000 -0.000000 0.000000 0.000000 0.000000 0.000000 0.000000 -0.000000 0.000000 0.000000 -0.000000 0.000000 0.000000 2.308480 -3.844946 0.302443 -3.884132 0.778016 0.698848 0.000000 0.000000 0.000000 0.000000 0.000000 0.000000 -0.048748 1.406145 0.248846 3.082767 7.853289 1.835109 -13.589893 -12.089602 -5.340694 20.615525 21.066029 -0.411420 0.000000 0.000000 0.000000 0.000000 0.000000 0.000000 -0.508597 1.471341 21.781225 0.137105 -1.261161 0.210534 -4.777405 1.467912 5.358235 0.000000 0.000000 0.000000 0.086643 0.351023 21.980784 -0.447908 0.865837 -0.272058 1.304678 -1.285920 0.848232 0.000000 0.000000 0.000000
1.466737 81.289386 319.387970 -0.260328 -0.339391 -21.775301 -0.448036 -0.170237 21.744123 0.739374 0.331667 0.029039 -0.000000 0.000000 0.000000 0.000000 0.000000 0.000000 -0.764789 -0.419777 0.133216 0.103344 -0.481367 0.144731 2.462452 -0.824440 -0.567728 -3.958738 -2.535185 1.365556 0.000000 0.000000 0.000000 0.000000 0.000000 0.000000 -0.016147 1.120956 0.203423 2.767530 7.615005 1.758787 -14.136326 -13.041373 -5.881227 20.567508 19.900064 0.201495 0.000000 0.000000 0.000000 0.000000 0.000000 0.000000 -1.085952 1.963803 21.515764 1.200784 -2.948811 0.604106 -1.192459 10.190578 5.409033 0.000000 0.000000 0.000000 0.115853 0.411746 21.774114 -0.243754 0.879126 -0.234500 1.659753 -1.319208 0.788814 0.000000 0.000000 0.000000
1.437398 81.222746 319.396521 -0.337176 -0.405032 -21.585978 -0.482895 -0.198737 21.549230 0.086672 0.164886 -0.030257 1.838709 0.108951 0.037915 0.000000 0.000000 0.000000 0.008578 -0.356922 0.233657 0.465192 -1.191192 0.090968 -0.462031 3.024250 -0.290765 -2.982449 -7.081319 1.809514 0.000000 0.000000 0.000000 0.000000 0.000000 0.000000 0.763197 1.162079 0.232919 2.454894 6.828619 1.583750 -14.739884 -13.072437 -6.012312 18.664944 19.747411 0.204248 0.000000 0.000000 0.000000 0.000000 0.000000 0.000000 -1.635604 2.398107 21.289555 2.061961 -4.014556 0.874277 1.278408 14.252452 4.320527 0.000000 0.000000 0.000000 0.164528 0.500668 21.584068 -0.010517 0.847091 -0.181595 2.167319 -1.465060 0.943552 0.000000 0.000000 0.000000
1.389654 81.165258 319.404214 -0.429316 -0.497423 -21.458192 -0.495522 -0.264684 21.414350 0.088269 0.153488 -0.035495 2.344889 0.471334 -0.005422 0.000000 0.000000 0.000000 0.144026 -0.369203 0.274726 0.701226 -1.974611 0.082700 -2.627191 5.863975 0.127928 -1.406389 -11.325552 1.346134 0.000000 0.000000 0.000000 0.000000 0.000000 0.000000 0.851706 1.210694 0.213531 2.246741 5.692581 1.353407 -15.023684 -11.721618 -5.415705 16.309769 18.548395 -0.012681 0.000000 0.000000 0.000000 0.000000 0.000000 0.000000 -1.444508 2.414522 21.177670 2.014981 -3.931220 0.870187 1.056728 12.408323 3.512184 0.000000 0.000000 0.000000 0.217607 0.619990 21.455151 -0.228623 0.774613 -0.209539 2.426559 -1.460827 1.079152 0.000000 0.000000 0.000000
1.369862 81.098092 319.411598 -0.486875 -0.594811 -21.324221 -0.518227 -0.345067 21.273820 0.098672 0.147746 -0.038947 2.756648 0.851387 -0.053086 0.000000 0.000000 0.000000 0.231120 -0.470534 0.331443 0.414418 -2.272179 0.173266 -2.506761 8.015919 -0.381468 -1.948092 -15.768871 1.781977 0.000000 0.000000 0.000000 0.000000 0.000000 0.000000 0.995431 0.581661 0.083456 2.104574 5.971202 1.352124 -15.842237 -12.286526 -5.809415 14.377010 14.801465 0.545601 0.000000 0.000000 0.000000 0.000000 0.000000 0.000000 -0.933618 2.227466 21.079438 1.420528 -3.369870 0.708371 1.185711 11.605908 3.328662 0.000000 0.000000 0.000000 1.083078 0.607812 21.427371 -1.161886 1.109885 -0.340314 2.178909 -1.244807 0.937464 0.000000 0.000000 0.000000
1.292297 81.074685 319.404143 -0.608300 -0.728732 -21.296238 -0.505055 -0.437343 21.236480 0.104621 0.123516 -0.044384 3.152997 1.541893 -0.139206 0.000000 0.000000 0.000000 0.300432 -0.565994 0.408703 -0.179337 -2.560932 0.356624 -1.858606 11.001624 -1.315917 -2.396280 -21.190764 2.351394 0.000000 0.000000 0.000000 0.000000 0.000000 0.000000 1.131538 0.831352 0.093299 1.807007 5.186053 1.186160 -15.050873 -10.603789 -4.872151 12.548205 12.817804 0.220917 0.000000 0.000000 0.000000 0.000000 0.000000 0.000000 -0.572778 2.289904 21.059252 1.148161 -2.981740 0.656594 1.089177 11.531417 3.531621 0.000000 0.000000 0.000000 1.322589 0.857231 21.427459 -1.497573 1.024818 -0.388021 1.977256 -1.061637 0.811664 0.000000 0.000000 0.000000
